<mxfile host="65bd71144e">
    <diagram id="QFoRguZFVowuC8mTe3wR" name="Page-1">
        <mxGraphModel dx="1497" dy="1657" grid="1" gridSize="10" guides="1" tooltips="1" connect="1" arrows="1" fold="1" page="1" pageScale="1" pageWidth="827" pageHeight="1169" math="0" shadow="0">
            <root>
                <mxCell id="0"/>
                <mxCell id="1" parent="0"/>
                <mxCell id="16" value="hackerrank-ddit-red-uk" style="points=[[0,0],[0.25,0],[0.5,0],[0.75,0],[1,0],[1,0.25],[1,0.5],[1,0.75],[1,1],[0.75,1],[0.5,1],[0.25,1],[0,1],[0,0.75],[0,0.5],[0,0.25]];outlineConnect=0;gradientColor=none;html=1;whiteSpace=wrap;fontSize=12;fontStyle=0;container=1;pointerEvents=0;collapsible=0;recursiveResize=0;shape=mxgraph.aws4.group;grIcon=mxgraph.aws4.group_account;strokeColor=#CD2264;fillColor=none;verticalAlign=top;align=left;spacingLeft=30;fontColor=#CD2264;dashed=0;labelBackgroundColor=default;" vertex="1" parent="1">
                    <mxGeometry x="100" y="-40" width="850" height="580" as="geometry"/>
                </mxCell>
                <mxCell id="28" value="" style="rounded=0;whiteSpace=wrap;html=1;labelBackgroundColor=default;fontColor=#1A1A1A;strokeColor=none;fillColor=#E6E6E6;" vertex="1" parent="16">
                    <mxGeometry x="362.4" y="100" width="165" height="80" as="geometry"/>
                </mxCell>
                <mxCell id="29" value="" style="outlineConnect=0;dashed=0;verticalLabelPosition=bottom;verticalAlign=top;align=center;html=1;shape=mxgraph.aws3.data_encryption_key;fillColor=#7D7C7C;gradientColor=none;fontColor=#1A1A1A;labelBackgroundColor=default;" vertex="1" parent="16">
                    <mxGeometry x="481.06000000000006" y="30" width="30" height="40" as="geometry"/>
                </mxCell>
                <mxCell id="30" value="pk" style="points=[[0,0.5,0],[0.24,0,0],[0.5,0.28,0],[0.995,0.475,0],[0.5,0.72,0],[0.24,1,0]];verticalLabelPosition=bottom;sketch=0;html=1;verticalAlign=top;aspect=fixed;align=center;pointerEvents=1;shape=mxgraph.cisco19.key;fillColor=#005073;strokeColor=none;fontColor=#1A1A1A;" vertex="1" parent="16">
                    <mxGeometry x="473.84000000000003" y="130" width="44.44" height="20" as="geometry"/>
                </mxCell>
                <mxCell id="31" value="cert" style="points=[[0.015,0.015,0],[0.25,0,0],[0.5,0,0],[0.75,0,0],[0.985,0.015,0],[1,0.22,0],[1,0.44,0],[1,0.67,0],[0.985,0.89,0],[0,0.22,0],[0,0.44,0],[0,0.67,0],[0.015,0.89,0],[0.25,0.91,0],[0.5,0.91,0],[0.785,0.955,0]];verticalLabelPosition=bottom;sketch=0;html=1;verticalAlign=top;aspect=fixed;align=center;pointerEvents=1;shape=mxgraph.cisco19.x509_certificate;fillColor=#005073;strokeColor=none;" vertex="1" parent="16">
                    <mxGeometry x="375" y="120" width="42.11" height="40" as="geometry"/>
                </mxCell>
                <mxCell id="32" value="chain" style="points=[[0.015,0.015,0],[0.25,0,0],[0.5,0,0],[0.75,0,0],[0.985,0.015,0],[1,0.22,0],[1,0.44,0],[1,0.67,0],[0.985,0.89,0],[0,0.22,0],[0,0.44,0],[0,0.67,0],[0.015,0.89,0],[0.25,0.91,0],[0.5,0.91,0],[0.785,0.955,0]];verticalLabelPosition=bottom;sketch=0;html=1;verticalAlign=top;aspect=fixed;align=center;pointerEvents=1;shape=mxgraph.cisco19.x509_certificate;fillColor=#005073;strokeColor=none;" vertex="1" parent="16">
                    <mxGeometry x="423.84000000000003" y="120" width="42.11" height="40" as="geometry"/>
                </mxCell>
                <mxCell id="33" value="encrypt/decrypt" style="edgeStyle=none;html=1;entryX=0.5;entryY=0.28;entryDx=0;entryDy=0;entryPerimeter=0;fontColor=#1A1A1A;endArrow=open;endFill=0;dashed=1;" edge="1" parent="16" source="29" target="30">
                    <mxGeometry x="-0.6951" y="-1" relative="1" as="geometry">
                        <mxPoint x="121.05233644859806" y="210" as="sourcePoint"/>
                        <mxPoint as="offset"/>
                    </mxGeometry>
                </mxCell>
                <mxCell id="45" value="trust" style="edgeStyle=none;html=1;entryX=0.978;entryY=0.45;entryDx=0;entryDy=0;entryPerimeter=0;fontColor=#1A1A1A;endArrow=open;endFill=0;" edge="1" parent="16" source="34" target="43">
                    <mxGeometry relative="1" as="geometry"/>
                </mxCell>
                <mxCell id="52" style="edgeStyle=none;html=1;dashed=1;fontColor=#1A1A1A;endArrow=none;endFill=0;" edge="1" parent="16" source="34" target="51">
                    <mxGeometry relative="1" as="geometry"/>
                </mxCell>
                <mxCell id="54" value="trust" style="edgeStyle=none;html=1;fontColor=#1A1A1A;endArrow=open;endFill=0;" edge="1" parent="16" source="34" target="28">
                    <mxGeometry relative="1" as="geometry"/>
                </mxCell>
                <mxCell id="35" value="&lt;span style=&quot;color: rgb(26, 26, 26); text-align: left; background-color: rgb(251, 251, 251);&quot;&gt;hackerrank-ddit-red-uk/FPFH6BuXp6BjsCly&lt;/span&gt;" style="sketch=0;points=[[0,0,0],[0.25,0,0],[0.5,0,0],[0.75,0,0],[1,0,0],[0,1,0],[0.25,1,0],[0.5,1,0],[0.75,1,0],[1,1,0],[0,0.25,0],[0,0.5,0],[0,0.75,0],[1,0.25,0],[1,0.5,0],[1,0.75,0]];outlineConnect=0;fontColor=#232F3E;gradientColor=#60A337;gradientDirection=north;fillColor=#277116;strokeColor=#ffffff;dashed=0;verticalLabelPosition=bottom;verticalAlign=top;align=center;html=1;fontSize=12;fontStyle=0;aspect=fixed;shape=mxgraph.aws4.resourceIcon;resIcon=mxgraph.aws4.s3;labelBackgroundColor=default;" vertex="1" parent="16">
                    <mxGeometry x="480.54999999999995" y="410" width="40" height="40" as="geometry"/>
                </mxCell>
                <mxCell id="42" style="edgeStyle=none;html=1;fontColor=#1A1A1A;endArrow=none;endFill=0;dashed=1;" edge="1" parent="16" source="41" target="34">
                    <mxGeometry relative="1" as="geometry"/>
                </mxCell>
                <mxCell id="44" style="edgeStyle=none;html=1;entryX=0.509;entryY=0.002;entryDx=0;entryDy=0;entryPerimeter=0;dashed=1;fontColor=#1A1A1A;endArrow=none;endFill=0;" edge="1" parent="16" source="41" target="43">
                    <mxGeometry relative="1" as="geometry"/>
                </mxCell>
                <mxCell id="41" value="" style="sketch=0;points=[[0,0,0],[0.25,0,0],[0.5,0,0],[0.75,0,0],[1,0,0],[0,1,0],[0.25,1,0],[0.5,1,0],[0.75,1,0],[1,1,0],[0,0.25,0],[0,0.5,0],[0,0.75,0],[1,0.25,0],[1,0.5,0],[1,0.75,0]];outlineConnect=0;fontColor=#232F3E;gradientColor=#F54749;gradientDirection=north;fillColor=#C7131F;strokeColor=#ffffff;dashed=0;verticalLabelPosition=bottom;verticalAlign=top;align=center;html=1;fontSize=12;fontStyle=0;aspect=fixed;shape=mxgraph.aws4.resourceIcon;resIcon=mxgraph.aws4.identity_and_access_management;labelBackgroundColor=default;" vertex="1" parent="16">
                    <mxGeometry x="245" y="240" width="38" height="38" as="geometry"/>
                </mxCell>
                <mxCell id="47" style="edgeStyle=none;html=1;fontColor=#1A1A1A;endArrow=none;endFill=0;dashed=1;" edge="1" parent="16" source="43" target="46">
                    <mxGeometry relative="1" as="geometry"/>
                </mxCell>
                <mxCell id="49" value="eu-central-1" style="points=[[0,0],[0.25,0],[0.5,0],[0.75,0],[1,0],[1,0.25],[1,0.5],[1,0.75],[1,1],[0.75,1],[0.5,1],[0.25,1],[0,1],[0,0.75],[0,0.5],[0,0.25]];outlineConnect=0;gradientColor=none;html=1;whiteSpace=wrap;fontSize=12;fontStyle=0;container=1;pointerEvents=0;collapsible=0;recursiveResize=0;shape=mxgraph.aws4.group;grIcon=mxgraph.aws4.group_region;strokeColor=#147EBA;fillColor=none;verticalAlign=top;align=left;spacingLeft=30;fontColor=#147EBA;dashed=1;labelBackgroundColor=default;" vertex="1" parent="16">
                    <mxGeometry x="60" y="410" width="290" height="130" as="geometry"/>
                </mxCell>
                <mxCell id="46" value="hackerrank-ddit-red-uk" style="shape=mxgraph.signs.transportation.anchor_3;html=1;pointerEvents=1;fillColor=#000000;strokeColor=none;verticalLabelPosition=bottom;verticalAlign=top;align=center;labelBackgroundColor=default;fontColor=#1A1A1A;" vertex="1" parent="49">
                    <mxGeometry x="62.5" y="50" width="25" height="30" as="geometry"/>
                </mxCell>
                <mxCell id="55" value="hackerrank-ddit-red-uk" style="outlineConnect=0;dashed=0;verticalLabelPosition=bottom;verticalAlign=top;align=center;html=1;shape=mxgraph.aws3.user;fillColor=#D2D3D3;gradientColor=none;labelBackgroundColor=default;fontColor=#1A1A1A;" vertex="1" parent="49">
                    <mxGeometry x="200" y="40" width="30" height="40" as="geometry"/>
                </mxCell>
                <mxCell id="19" value="" style="sketch=0;points=[[0,0,0],[0.25,0,0],[0.5,0,0],[0.75,0,0],[1,0,0],[0,1,0],[0.25,1,0],[0.5,1,0],[0.75,1,0],[1,1,0],[0,0.25,0],[0,0.5,0],[0,0.75,0],[1,0.25,0],[1,0.5,0],[1,0.75,0]];outlineConnect=0;fontColor=#232F3E;gradientColor=#F54749;gradientDirection=north;fillColor=#C7131F;strokeColor=#ffffff;dashed=0;verticalLabelPosition=bottom;verticalAlign=top;align=center;html=1;fontSize=12;fontStyle=0;aspect=fixed;shape=mxgraph.aws4.resourceIcon;resIcon=mxgraph.aws4.certificate_manager_3;" vertex="1" parent="16">
                    <mxGeometry x="220" y="30" width="40" height="40" as="geometry"/>
                </mxCell>
                <mxCell id="18" style="edgeStyle=none;html=1;fontColor=#1A1A1A;endArrow=none;endFill=0;entryX=0;entryY=0.5;entryDx=0;entryDy=0;dashed=1;" edge="1" parent="16" source="19" target="28">
                    <mxGeometry relative="1" as="geometry">
                        <mxPoint x="520" y="140" as="targetPoint"/>
                    </mxGeometry>
                </mxCell>
                <mxCell id="50" style="edgeStyle=none;html=1;entryX=0.015;entryY=0.89;entryDx=0;entryDy=0;entryPerimeter=0;dashed=1;fontColor=#1A1A1A;endArrow=none;endFill=0;" edge="1" parent="16" source="46" target="32">
                    <mxGeometry relative="1" as="geometry"/>
                </mxCell>
                <mxCell id="53" value="grant read access" style="edgeStyle=none;html=1;fontColor=#1A1A1A;endArrow=open;endFill=0;" edge="1" parent="16" source="51" target="35">
                    <mxGeometry relative="1" as="geometry"/>
                </mxCell>
                <mxCell id="51" value="" style="sketch=0;outlineConnect=0;fontColor=#232F3E;gradientColor=none;fillColor=#3F8624;strokeColor=none;dashed=0;verticalLabelPosition=bottom;verticalAlign=top;align=center;html=1;fontSize=12;fontStyle=0;aspect=fixed;pointerEvents=1;shape=mxgraph.aws4.policy;labelBackgroundColor=default;" vertex="1" parent="16">
                    <mxGeometry x="484.25" y="320" width="32.6" height="28" as="geometry"/>
                </mxCell>
                <mxCell id="56" value="apply to" style="edgeStyle=none;html=1;fontColor=#1A1A1A;endArrow=open;endFill=0;" edge="1" parent="16" source="55" target="34">
                    <mxGeometry relative="1" as="geometry"/>
                </mxCell>
                <mxCell id="34" value="hackerrank-ddit-red-uk-&lt;span style=&quot;color: rgb(26, 26, 26); text-align: left; background-color: rgb(251, 251, 251);&quot;&gt;FPFH6BuXp6BjsCly&lt;/span&gt;" style="sketch=0;outlineConnect=0;fontColor=#232F3E;gradientColor=none;fillColor=#BF0816;strokeColor=none;dashed=0;verticalLabelPosition=bottom;verticalAlign=top;align=center;html=1;fontSize=12;fontStyle=0;aspect=fixed;pointerEvents=1;shape=mxgraph.aws4.role;labelBackgroundColor=default;" vertex="1" parent="16">
                    <mxGeometry x="482.83" y="249" width="35.45" height="20" as="geometry"/>
                </mxCell>
                <mxCell id="57" style="edgeStyle=none;html=1;fontColor=#1A1A1A;endArrow=none;endFill=0;dashed=1;exitX=0.871;exitY=0.795;exitDx=0;exitDy=0;exitPerimeter=0;" edge="1" parent="16" source="43" target="55">
                    <mxGeometry relative="1" as="geometry">
                        <mxPoint x="260.5000000000002" y="373.0813953488371" as="sourcePoint"/>
                        <mxPoint x="157.5" y="472.8875968992247" as="targetPoint"/>
                    </mxGeometry>
                </mxCell>
                <mxCell id="43" value="roles anywhere" style="verticalLabelPosition=bottom;sketch=0;html=1;fillColor=#282828;strokeColor=none;verticalAlign=top;pointerEvents=1;align=center;shape=mxgraph.cisco_safe.security_icons.iam;labelBackgroundColor=default;fontColor=#1A1A1A;" vertex="1" parent="16">
                    <mxGeometry x="250.5" y="330" width="27" height="40" as="geometry"/>
                </mxCell>
                <mxCell id="17" value="request X.509 Certificated&lt;br&gt;and PKI" style="edgeStyle=none;html=1;endArrow=open;endFill=0;" edge="1" parent="1" source="19" target="20">
                    <mxGeometry relative="1" as="geometry">
                        <mxPoint as="offset"/>
                    </mxGeometry>
                </mxCell>
                <mxCell id="20" value="Novo Nordisk" style="aspect=fixed;perimeter=ellipsePerimeter;html=1;align=center;shadow=0;dashed=0;fontColor=#1A1A1A;labelBackgroundColor=#ffffff;fontSize=12;spacingTop=3;image;image=img/lib/ibm/blockchain/certificate_authority.svg;" vertex="1" parent="1">
                    <mxGeometry x="320" y="80" width="40" height="40" as="geometry"/>
                </mxCell>
                <mxCell id="27" style="edgeStyle=none;html=1;fontColor=#1A1A1A;endArrow=oval;endFill=1;dashed=1;" edge="1" parent="1" source="26" target="29">
                    <mxGeometry relative="1" as="geometry">
                        <mxPoint x="761.7760000000001" y="-60" as="targetPoint"/>
                    </mxGeometry>
                </mxCell>
                <mxCell id="26" value="&lt;span style=&quot;color: rgb(26, 26, 26); text-align: left; background-color: rgb(251, 251, 251);&quot;&gt;FPFH6BuXp6BjsCly&lt;/span&gt;" style="sketch=0;outlineConnect=0;fontColor=#232F3E;gradientColor=none;fillColor=#232F3D;strokeColor=none;dashed=0;verticalLabelPosition=bottom;verticalAlign=top;align=center;html=1;fontSize=12;fontStyle=0;aspect=fixed;pointerEvents=1;shape=mxgraph.aws4.user;labelBackgroundColor=default;" vertex="1" parent="1">
                    <mxGeometry x="576.06" y="-150" width="40" height="40" as="geometry"/>
                </mxCell>
                <mxCell id="48" style="edgeStyle=none;html=1;dashed=1;fontColor=#1A1A1A;endArrow=none;endFill=0;" edge="1" parent="1" source="46" target="20">
                    <mxGeometry relative="1" as="geometry"/>
                </mxCell>
                <mxCell id="59" value="assume" style="edgeStyle=none;html=1;fontColor=#1A1A1A;endArrow=open;endFill=0;" edge="1" parent="1" source="58" target="34">
                    <mxGeometry relative="1" as="geometry"/>
                </mxCell>
                <mxCell id="58" value="" style="sketch=0;pointerEvents=1;shadow=0;dashed=0;html=1;strokeColor=none;fillColor=#DF8C42;labelPosition=center;verticalLabelPosition=bottom;verticalAlign=top;align=center;outlineConnect=0;shape=mxgraph.veeam2.linux;labelBackgroundColor=default;fontColor=#1A1A1A;" vertex="1" parent="1">
                    <mxGeometry x="760" y="-120" width="40" height="40" as="geometry"/>
                </mxCell>
            </root>
        </mxGraphModel>
    </diagram>
</mxfile>